<svg height="512" viewBox="0 0 512 512" width="512" xmlns="http://www.w3.org/2000/svg"><path d="m200 48 39.479 28.664 48.521-5.084 19.857 44.563 44.563 19.857-5.084 48.521 28.664 39.479-28.664 39.479 5.084 48.521-44.563 19.857-19.857 44.563-48.521-5.084-39.479 28.664-39.479-28.664-48.521 5.084-19.857-44.563-44.563-19.857 5.084-48.521-28.664-39.479 28.664-39.479-5.084-48.521 44.563-19.857 19.857-44.563 48.521 5.084z" fill="#ffb531"/><path d="m320 224a120.013 120.013 0 1 1 -33.38-83.04 120.005 120.005 0 0 1 33.38 83.04z" fill="#f98500"/><path d="m320 224a120 120 0 0 1 -218.63 68.36c91.29-.59 167.19-65.35 185.25-151.4a119.536 119.536 0 0 1 33.38 83.04z" fill="#f27900"/><path d="m177.668 130.629 3.711 15.562a80.362 80.362 0 0 1 18.621-2.175v-16a96.4 96.4 0 0 0 -22.332 2.613z" fill="#ff9419"/><path d="m104 224.016h16a80.264 80.264 0 0 1 46.637-72.735l-6.68-14.539a96.31 96.31 0 0 0 -55.957 87.274z" fill="#ff9419"/><path d="m488 406.07c0 31.99-25.07 57.93-56 57.93h-296a54.335 54.335 0 0 1 -29.12-8.44 58.332 58.332 0 0 1 -26.88-49.49c0-32 25.07-57.93 56-57.93.54 0 1.06.07 1.59.08 7.39-37.81 39.68-66.29 78.41-66.29a77.454 77.454 0 0 1 39.16 10.64c15.12-40.11 52.72-68.57 96.84-68.57 35.31 0 66.52 18.21 85.3 46.04a109.585 109.585 0 0 1 18.7 61.55 111.847 111.847 0 0 1 -2.04 21.18c20.01 8.84 34.04 29.37 34.04 53.3z" fill="#e0e0de"/><g fill="#ebebe9"><path d="m334.285 251.121 3.617 15.586a62.447 62.447 0 0 1 14.098-1.607v-16a78.513 78.513 0 0 0 -17.715 2.021z"/><path d="m277.492 301.773 14.969 5.641a65.553 65.553 0 0 1 30.871-35.332l-7.375-14.195a81.492 81.492 0 0 0 -38.465 43.886z"/><path d="m202.492 325.492a38.322 38.322 0 0 1 13.508-2.457v-16a54.212 54.212 0 0 0 -19.133 3.481z"/><path d="m161.109 353.246-.961 4.922 15.7 3.062.96-4.921a41.567 41.567 0 0 1 16.168-25.653l-9.46-12.9a57.491 57.491 0 0 0 -22.407 35.49z"/></g><path d="m488 406.07c0 31.99-25.07 57.93-56 57.93h-296a54.335 54.335 0 0 1 -29.12-8.44c103.73-16.77 250.79-60.14 330.42-185.52a109.585 109.585 0 0 1 18.7 61.55 111.847 111.847 0 0 1 -2.04 21.18c20.01 8.84 34.04 29.37 34.04 53.3z" fill="#d6d6d4"/></svg>